<?xml version="1.0" encoding="UTF-8" standalone="no"?>
<!-- Created with Inkscape (http://www.inkscape.org/) -->

<svg
   width="180mm"
   height="250mm"
   viewBox="0 0 180 250"
   version="1.1"
   id="svg1"
   sodipodi:docname="BoatArming2.svg"
   inkscape:version="1.3.2 (091e20e, 2023-11-25, custom)"
   xmlns:inkscape="http://www.inkscape.org/namespaces/inkscape"
   xmlns:sodipodi="http://sodipodi.sourceforge.net/DTD/sodipodi-0.dtd"
   xmlns="http://www.w3.org/2000/svg"
   xmlns:svg="http://www.w3.org/2000/svg">
  <sodipodi:namedview
     id="namedview1"
     pagecolor="#ffffff"
     bordercolor="#000000"
     borderopacity="0.25"
     inkscape:showpageshadow="2"
     inkscape:pageopacity="0.0"
     inkscape:pagecheckerboard="0"
     inkscape:deskcolor="#d1d1d1"
     inkscape:document-units="mm"
     inkscape:zoom="2.768771"
     inkscape:cx="276.83763"
     inkscape:cy="239.99818"
     inkscape:window-width="2400"
     inkscape:window-height="1411"
     inkscape:window-x="2391"
     inkscape:window-y="-9"
     inkscape:window-maximized="1"
     inkscape:current-layer="g4" />
  <defs
     id="defs1" />
  <g
     id="g4">
    <path
       style="fill:#949494;fill-opacity:1;stroke-width:0.264583"
       d="m 155,222 -64.999999,10 -65,-10 V 87 l 65,-65 L 155,87 Z"
       id="path3" />
    <path
       style="fill:#6b6b6b;fill-opacity:1;stroke-width:0.208788"
       d="M 140,205.90476 90.000001,214 l -50,-8.09524 V 96.61905 L 90.000001,44 140,96.61905 Z"
       id="path3-8" />
    <g
       id="g1">
      <rect
         style="fill:#4d4d4d;fill-opacity:0.0153061;stroke-width:0.219806"
         id="rect1-5"
         width="25"
         height="86"
         x="77.500008"
         y="18" />
      <path
         id="rect1"
         style="fill:#4d4d4d;stroke-width:0.219806"
         d="m 77.5,30 h 25 c 0,0 12.48065,17.307964 12.5,31 0.0203,14.357523 -12.5,43 -12.5,43 h -25 C 77.5,104 64.979712,75.357523 65,61 65.019347,47.307964 77.5,30 77.5,30 Z"
         sodipodi:nodetypes="ccsccsc" />
    </g>
    <circle
       style="fill:#4d4d4d;stroke-width:0.270387"
       id="path2"
       cx="90"
       cy="105.23552"
       r="25" />
    <g
       id="g5"
       transform="matrix(1.5390417,0,0,1.5390417,-48.513753,-96.669194)">
      <rect
         style="fill:#4d4d4d;stroke-width:0.295435"
         id="rect2"
         width="95.927925"
         height="14.166667"
         x="42.036037"
         y="167.31146" />
      <circle
         style="fill:#4d4d4d;stroke-width:0.229827"
         id="path2-3"
         cx="90"
         cy="174.39479"
         r="21.25" />
      <circle
         style="fill:#2f2f2f;fill-opacity:1;stroke-width:0.137896"
         id="path2-3-0"
         cx="90"
         cy="174.39479"
         r="12.75" />
    </g>
  </g>
</svg>
